<svg data-noselect="" viewBox="0 0 120 50" width="120" height="50" preserveAspectRatio="none" version="1.1" xmlns="http://www.w3.org/2000/svg" xmlns:xlink="http://www.w3.org/1999/xlink" class="svg-canvas"><defs><filter id="filter_shadow_shape_npAK3UdNZI" width="300%" height="300%" x="-100%" y="-100%">
              <feDropShadow dx="0" dy="0" stdDeviation="0.4263747117940434" flood-color="#000000" flood-opacity="0.4"></feDropShadow>
            </filter><filter id="filter_shadow_shape_bos6SPlo4C" width="300%" height="300%" x="-100%" y="-100%">
              <feDropShadow dx="0" dy="0" stdDeviation="0.46145579854364965" flood-color="#000000" flood-opacity="0.4"></feDropShadow>
            </filter></defs> <g id="background" data-noselect=""><!----> <!----></g> <g id="shape_XKO1wPHsKZ" transform="translate(7.050988743140493,5.658454448612041) rotate(0,19.22970385402428,19.823724878249962) scale(1,1)" filter="" style="opacity: 1;"><g><rect fill="rgba(0,0,0,0)" width="58.45940770804856" height="59.647449756499924" x="-10" y="-10"></rect><svg version="1.1" id="图层_1" xmlns="http://www.w3.org/2000/svg" xmlns:xlink="http://www.w3.org/1999/xlink" x="0px" y="0px" width="38.45940770804856" height="39.647449756499924" viewBox="0 0 139.2 143.5" style="enable-background:new 0 0 139.2 143.5;" xml:space="preserve" class="style-removed" preserveAspectRatio="none" data-parent="shape_XKO1wPHsKZ">

<path d="M133.4,53.4l0,40.2c0,12.4-9.4,22.9-21.8,24.1l-60.3,6c-13.4,1.3-25-9.2-25-22.6V35.6c0-15,14.2-25.9,28.7-22
	l84.2,23.1v-3.1c0-3.2-2.1-6-5.2-6.9L39.7,1.1C19.7-4.3,0,10.8,0,31.5V112c0,18.6,16.1,33.2,34.6,31.3l76.2-7.6
	c16.1-1.6,28.3-15.2,28.3-31.3L139,59.1c0-2.5-1.7-4.6-4-5.3L133.4,53.4z" fill="#FF8C00" stroke-width="0"></path>
</svg></g></g><g id="shape_npAK3UdNZI" transform="translate(29.85039645118906,-39.85115950791556) rotate(0,53.144192080847034,61.65656250000001) scale(1,1)" filter="url(#filter_shadow_shape_npAK3UdNZI)" style="opacity: 1;"><g><svg xmlns="http://www.w3.org/2000/svg" version="1.1" xmlns:xlink="http://www.w3.org/1999/xlink" width="141.60838416169406" height="123.31312500000001" viewBox="0 0 141.60838416169406 123.31312500000001" data-parent="shape_npAK3UdNZI"><g data-width="70.64" transform="translate(17.66, 0)"><path d="M10.11-14.09L10.11-13.16Q10.11-3.62 17.16 1.93L17.16 1.93Q17.42 2.14 17.26 2.43L17.26 2.43L17.23 2.50Q17.09 2.79 16.76 2.71L16.76 2.71Q10.97 0.91 8.78-4.79L8.78-4.79Q6.59 0.91 0.79 2.71L0.79 2.71Q0.47 2.79 0.31 2.50L0.31 2.50L0.28 2.43Q0.14 2.14 0.40 1.93L0.40 1.93Q7.45-3.62 7.45-13.16L7.45-13.16L7.45-14.09Q7.45-14.49 7.85-14.49L7.85-14.49L9.71-14.49Q10.11-14.49 10.11-14.09L10.11-14.09Z" transform="translate(0 68.1565625) " fill="#ff8c00" stroke="#ff8c00" stroke-width="0.029" data-glyph-w="17.66" data-glyph-h="17.24609375" data-glyph-ascender="15.1765625" data-glyph-descender="-2.06953125"></path><path d="M10.11-14.09L10.11-13.16Q10.11-3.62 17.16 1.93L17.16 1.93Q17.42 2.14 17.26 2.43L17.26 2.43L17.23 2.50Q17.09 2.79 16.76 2.71L16.76 2.71Q10.97 0.91 8.78-4.79L8.78-4.79Q6.59 0.91 0.79 2.71L0.79 2.71Q0.47 2.79 0.31 2.50L0.31 2.50L0.28 2.43Q0.14 2.14 0.40 1.93L0.40 1.93Q7.45-3.62 7.45-13.16L7.45-13.16L7.45-14.09Q7.45-14.49 7.85-14.49L7.85-14.49L9.71-14.49Q10.11-14.49 10.11-14.09L10.11-14.09Z" transform="translate(17.66 68.1565625) " fill="#ff8c00" stroke="#ff8c00" stroke-width="0.029" data-glyph-w="17.66" data-glyph-h="17.24609375" data-glyph-ascender="15.1765625" data-glyph-descender="-2.06953125"></path><path d="M0.79-9.23L0.79-13.42Q0.79-13.81 1.19-13.81L1.19-13.81L9.71-13.81Q10.11-13.81 10.11-13.42L10.11-13.42L10.11-9.23Q10.11-8.83 9.71-8.83L9.71-8.83L1.19-8.83Q0.79-8.83 0.79-9.23L0.79-9.23ZM16.59-13.30Q15.28-9.24 11.62-7.95L11.62-7.95Q11.30-7.83 11.14-8.14L11.14-8.14L11.07-8.28Q10.95-8.50 11.11-8.69L11.11-8.69Q12.80-11.00 13.87-13.57L13.87-13.57Q13.97-13.81 14.25-13.81L14.25-13.81L16.21-13.81Q16.42-13.81 16.54-13.66L16.54-13.66Q16.66-13.49 16.59-13.30L16.59-13.30ZM16.88-7.95Q15.31-3.91 11.62-2.62L11.62-2.62Q11.30-2.50 11.14-2.83L11.14-2.83L11.07-2.95Q10.95-3.17 11.12-3.38L11.12-3.38Q12.99-5.67 14.19-8.28L14.19-8.28Q14.31-8.50 14.56-8.50L14.56-8.50L16.52-8.50Q16.73-8.50 16.85-8.33L16.85-8.33Q16.97-8.16 16.88-7.95L16.88-7.95ZM17.18-2.62Q15.33 1.40 11.62 2.69L11.62 2.69Q11.30 2.81 11.14 2.50L11.14 2.50L11.07 2.38Q10.95 2.14 11.12 1.93L11.12 1.93Q13.16-0.38 14.52-2.97L14.52-2.97Q14.64-3.19 14.88-3.19L14.88-3.19L16.81-3.19Q17.04-3.19 17.14-3.00L17.14-3.00Q17.26-2.81 17.18-2.62L17.18-2.62ZM0.79-2.59L0.79-5.78Q0.79-6.17 1.19-6.17L1.19-6.17L9.71-6.17Q10.11-6.17 10.11-5.78L10.11-5.78L10.11-2.59Q10.11-2.19 9.71-2.19L9.71-2.19L6.78-2.19L6.78-0.52Q6.78 1.24 5.55 2.12L5.55 2.12Q4.79 2.66 3.74 2.78L3.74 2.78Q3.47 2.81 3.35 2.57L3.35 2.57L3.26 2.40Q3.14 2.16 3.33 1.95L3.33 1.95Q4.12 1.10 4.12-0.52L4.12-0.52L4.12-2.19L1.19-2.19Q0.79-2.19 0.79-2.59L0.79-2.59ZM7.45-3.59L7.45-4.78Q7.45-5.17 7.05-5.17L7.05-5.17L3.86-5.17Q3.45-5.17 3.45-4.78L3.45-4.78L3.45-3.59Q3.45-3.19 3.86-3.19L3.86-3.19L7.05-3.19Q7.45-3.19 7.45-3.59L7.45-3.59ZM3.41-1.07Q3.00 1.98 0.81 2.71L0.81 2.71Q0.48 2.83 0.33 2.52L0.33 2.52L0.21 2.29Q0.14 2.14 0.19 1.98L0.19 1.98Q0.72 0.47 0.79-1.14L0.79-1.14Q0.81-1.52 1.19-1.52L1.19-1.52L3.02-1.52Q3.19-1.52 3.31-1.38L3.31-1.38Q3.43-1.24 3.41-1.07L3.41-1.07ZM7.52-1.05L8.05 2.14Q8.11 2.47 8.45 2.47L8.45 2.47L10.30 2.47Q10.49 2.47 10.61 2.33L10.61 2.33Q10.73 2.19 10.69 2.00L10.69 2.00L10.16-1.19Q10.11-1.52 9.76-1.52L9.76-1.52L7.92-1.52Q7.73-1.52 7.61-1.38L7.61-1.38Q7.48-1.24 7.52-1.05L7.52-1.05ZM0.53-7.83L4.12-7.83L4.12-8.11Q4.12-8.50 4.52-8.50L4.52-8.50L6.38-8.50Q6.78-8.50 6.78-8.11L6.78-8.11L6.78-7.83L10.36-7.83Q10.76-7.83 10.76-7.43L10.76-7.43L10.76-7.24Q10.76-6.85 10.36-6.85L10.36-6.85L0.53-6.85Q0.14-6.85 0.14-7.24L0.14-7.24L0.14-7.43Q0.14-7.83 0.53-7.83L0.53-7.83ZM3.45-12.42L3.45-11.83L7.45-11.83L7.45-12.42Q7.45-12.83 7.05-12.83L7.05-12.83L3.86-12.83Q3.45-12.83 3.45-12.42L3.45-12.42ZM7.45-10.23L7.45-10.83L3.45-10.83L3.45-10.23Q3.45-9.83 3.86-9.83L3.86-9.83L7.05-9.83Q7.45-9.83 7.45-10.23L7.45-10.23Z" transform="translate(35.32 68.1565625) " fill="#ff8c00" stroke="#ff8c00" stroke-width="0.029" data-glyph-w="17.66" data-glyph-h="17.24609375" data-glyph-ascender="15.1765625" data-glyph-descender="-2.06953125"></path><path d="M6.05-11.49L0.86-11.49Q0.47-11.49 0.47-11.09L0.47-11.09L0.47-10.90Q0.47-10.50 0.86-10.50L0.86-10.50L3.29-10.50Q3.48-10.50 3.60-10.35L3.60-10.35Q3.73-10.19 3.67-10.00L3.67-10.00Q2.90-7.12 0.31-4.05L0.31-4.05Q0.14-3.85 0.26-3.60L0.26-3.60L0.31-3.50Q0.47-3.17 0.81-3.31L0.81-3.31Q1.64-3.64 2.47-4.23L2.47-4.23L2.47 2.40Q2.47 2.79 2.86 2.79L2.86 2.79L4.73 2.79Q5.12 2.79 5.12 2.40L5.12 2.40L5.12-7.11Q6.02-8.59 6.43-10.45L6.43-10.45Q6.45-10.50 6.45-10.54L6.45-10.54L6.45-11.09Q6.45-11.49 6.05-11.49L6.05-11.49ZM13.25-2.85L14.37-2.85Q14.76-2.85 14.76-2.45L14.76-2.45L14.76 0.81Q14.76 1.47 15.42 1.47L15.42 1.47L17.02 1.47Q17.42 1.47 17.42 1.86L17.42 1.86L17.42 2.07Q17.42 2.47 17.02 2.47L17.02 2.47L14.09 2.47Q12.85 2.47 12.35 1.47L12.35 1.47Q12.11 0.97 12.11 0.47L12.11 0.47L12.11-0.29Q10.54 2.16 8.09 2.72L8.09 2.72Q7.78 2.81 7.64 2.52L7.64 2.52L7.59 2.40Q7.45 2.14 7.66 1.93L7.66 1.93Q11.11-1.28 11.11-6.50L11.11-6.50L11.11-11.09Q11.11-11.49 11.50-11.49L11.50-11.49L13.37-11.49Q13.76-11.49 13.76-11.09L13.76-11.09L13.76-6.50Q13.76-4.59 13.25-2.85L13.25-2.85ZM7.78-3.59L7.78-13.42Q7.78-13.81 8.17-13.81L8.17-13.81L16.69-13.81Q17.09-13.81 17.09-13.42L17.09-13.42L17.09-3.59Q17.09-3.19 16.69-3.19L16.69-3.19L14.83-3.19Q14.42-3.19 14.42-3.59L14.42-3.59L14.42-12.42Q14.42-12.83 14.02-12.83L14.02-12.83L10.83-12.83Q10.43-12.83 10.43-12.42L10.43-12.42L10.43-3.59Q10.43-3.19 10.04-3.19L10.04-3.19L8.17-3.19Q7.78-3.19 7.78-3.59L7.78-3.59ZM5.59-3.21L5.31-6.07Q5.31-6.24 5.42-6.38L5.42-6.38Q5.54-6.50 5.71-6.50L5.71-6.50L6.74-6.50Q7.11-6.50 7.14-6.14L7.14-6.14L7.40-3.29Q7.42-3.10 7.30-2.98L7.30-2.98Q7.19-2.85 7.00-2.85L7.00-2.85L5.98-2.85Q5.60-2.85 5.59-3.21L5.59-3.21ZM2.09-12.50L1.86-14.04Q1.83-14.21 1.95-14.35L1.95-14.35Q2.07-14.49 2.26-14.49L2.26-14.49L4.10-14.49Q4.45-14.49 4.50-14.14L4.50-14.14L4.73-12.61Q4.74-12.43 4.62-12.30L4.62-12.30Q4.50-12.16 4.33-12.16L4.33-12.16L2.47-12.16Q2.12-12.16 2.09-12.50L2.09-12.50Z" transform="translate(52.980000000000004 68.1565625) " fill="#ff8c00" stroke="#ff8c00" stroke-width="0.029" data-glyph-w="17.66" data-glyph-h="17.24609375" data-glyph-ascender="15.1765625" data-glyph-descender="-2.06953125"></path></g></svg></g></g><g id="shape_fmWJrMmoWq" transform="translate(42.13147838362719,14.440168617084446) rotate(0,46.39862335199181,25.365234375) scale(1,1)" filter="" style="opacity: 1;"><g><svg xmlns="http://www.w3.org/2000/svg" version="1.1" xmlns:xlink="http://www.w3.org/1999/xlink" width="106.79724670398362" height="50.73046875" viewBox="0 0 106.79724670398362 50.73046875" data-parent="shape_fmWJrMmoWq"><g data-width="69.45654296875" transform="translate(7, 0)"><path d="M2.07 0L2.12-0.11L3.39-3.04L4.67-0.11L4.72 0L6.08-4.86L5.32-4.86L4.59-2.23Q4.36-2.74 4.01-3.57L4.01-3.57L3.87-3.89Q3.78-4.08 3.72-4.22L3.72-4.22Q3.56-4.60 3.42-4.91L3.42-4.91L3.37-4.91Q3.23-4.60 3.07-4.22L3.07-4.22Q3.00-4.08 2.92-3.89L2.92-3.89L2.78-3.57Q2.42-2.74 2.19-2.23L2.19-2.23L1.47-4.86L0.70-4.86L2.07 0Z" transform="translate(0 26.865234375) " fill="rgb(255, 140, 0)" stroke="rgb(255, 140, 0)" stroke-width="0.233" data-glyph-w="6.794921875" data-glyph-h="7.2939453125" data-glyph-ascender="5.865234375" data-glyph-descender="-1.4287109375"></path><path d="M2.07 0L2.12-0.11L3.39-3.04L4.67-0.11L4.72 0L6.08-4.86L5.32-4.86L4.59-2.23Q4.36-2.74 4.01-3.57L4.01-3.57L3.87-3.89Q3.78-4.08 3.72-4.22L3.72-4.22Q3.56-4.60 3.42-4.91L3.42-4.91L3.37-4.91Q3.23-4.60 3.07-4.22L3.07-4.22Q3.00-4.08 2.92-3.89L2.92-3.89L2.78-3.57Q2.42-2.74 2.19-2.23L2.19-2.23L1.47-4.86L0.70-4.86L2.07 0Z" transform="translate(6.794921875 26.865234375) " fill="rgb(255, 140, 0)" stroke="rgb(255, 140, 0)" stroke-width="0.233" data-glyph-w="6.794921875" data-glyph-h="7.2939453125" data-glyph-ascender="5.865234375" data-glyph-descender="-1.4287109375"></path><path d="M2.07 0L2.12-0.11L3.39-3.04L4.67-0.11L4.72 0L6.08-4.86L5.32-4.86L4.59-2.23Q4.36-2.74 4.01-3.57L4.01-3.57L3.87-3.89Q3.78-4.08 3.72-4.22L3.72-4.22Q3.56-4.60 3.42-4.91L3.42-4.91L3.37-4.91Q3.23-4.60 3.07-4.22L3.07-4.22Q3.00-4.08 2.92-3.89L2.92-3.89L2.78-3.57Q2.42-2.74 2.19-2.23L2.19-2.23L1.47-4.86L0.70-4.86L2.07 0Z" transform="translate(13.58984375 26.865234375) " fill="rgb(255, 140, 0)" stroke="rgb(255, 140, 0)" stroke-width="0.233" data-glyph-w="6.794921875" data-glyph-h="7.2939453125" data-glyph-ascender="5.865234375" data-glyph-descender="-1.4287109375"></path><path d="M0.50-0.57L0.50-0.57L0.78-0.86Q0.83-0.91 0.88-0.91L0.88-0.91Q0.92-0.91 0.98-0.85L0.98-0.85L1.25-0.56Q1.30-0.50 1.30-0.46L1.30-0.46Q1.30-0.41 1.25-0.35L1.25-0.35L0.97-0.05Q0.91 0.02 0.88 0.02L0.88 0.02Q0.82 0.02 0.78-0.03L0.78-0.03L0.48-0.38Q0.44-0.42 0.44-0.46L0.44-0.46Q0.44-0.52 0.50-0.57Z" transform="translate(20.384765625 26.865234375) " fill="rgb(255, 140, 0)" stroke="rgb(255, 140, 0)" stroke-width="0.233" data-glyph-w="1.90380859375" data-glyph-h="7.2939453125" data-glyph-ascender="5.865234375" data-glyph-descender="-1.4287109375"></path><path d="M1.84-0.78L4.53-0.78L4.53 0L0.67-0.00L0.67-0.78L3.58-3.22Q3.74-3.35 3.74-3.48L3.74-3.48Q3.74-3.74 3.55-3.93L3.55-3.93Q3.36-4.12 3.10-4.12L3.10-4.12L2.09-4.12Q1.83-4.12 1.64-3.93L1.64-3.93Q1.45-3.74 1.45-3.48L1.45-3.48L1.45-3.42L0.67-3.42L0.67-3.48Q0.67-4.06 1.09-4.48L1.09-4.48Q1.50-4.90 2.09-4.90L2.09-4.90L3.10-4.90Q3.68-4.90 4.10-4.48L4.10-4.48Q4.52-4.06 4.52-3.48L4.52-3.48Q4.52-3.00 4.19-2.75L4.19-2.75L1.84-0.78Z" transform="translate(22.28857421875 26.865234375) " fill="rgb(255, 140, 0)" stroke="rgb(255, 140, 0)" stroke-width="0.233" data-glyph-w="5.22265625" data-glyph-h="7.2939453125" data-glyph-ascender="5.865234375" data-glyph-descender="-1.4287109375"></path><path d="M2.61-3.85Q2.50-3.85 2.38-3.84L2.38-3.84L2.89-4.91L1.90-4.91L0.88-2.77L0.86-2.74L0.86-2.73Q0.68-2.35 0.68-1.93L0.68-1.93Q0.68-1.13 1.25-0.56L1.25-0.56Q1.81 0 2.61 0L2.61 0Q3.41 0 3.97-0.56L3.97-0.56Q4.54-1.13 4.54-1.93L4.54-1.93Q4.54-2.72 3.97-3.29L3.97-3.29Q3.41-3.85 2.61-3.85L2.61-3.85ZM2.61-0.78Q2.13-0.78 1.79-1.11L1.79-1.11Q1.45-1.46 1.45-1.93L1.45-1.93Q1.45-2.41 1.79-2.75L1.79-2.75Q2.13-3.09 2.61-3.09L2.61-3.09Q3.09-3.09 3.43-2.75L3.43-2.75Q3.77-2.41 3.77-1.93L3.77-1.93Q3.77-1.46 3.43-1.11L3.43-1.11Q3.09-0.78 2.61-0.78L2.61-0.78Z" transform="translate(27.51123046875 26.865234375) " fill="rgb(255, 140, 0)" stroke="rgb(255, 140, 0)" stroke-width="0.233" data-glyph-w="5.2021484375" data-glyph-h="7.2939453125" data-glyph-ascender="5.865234375" data-glyph-descender="-1.4287109375"></path><path d="M3.90-4.12L1.46-4.12L1.46-3.13L2.61-3.13Q3.26-3.13 3.72-2.67L3.72-2.67Q4.18-2.21 4.18-1.57L4.18-1.57Q4.18-0.92 3.72-0.46L3.72-0.46Q3.26 0 2.61 0L2.61 0L0.68 0L0.68-0.75L2.61-0.75Q2.95-0.75 3.19-0.99L3.19-0.99Q3.44-1.23 3.44-1.57L3.44-1.57Q3.44-1.90 3.19-2.15L3.19-2.15Q2.95-2.39 2.61-2.39L2.61-2.39L0.68-2.39L0.68-4.90L3.90-4.90L3.90-4.12Z" transform="translate(32.71337890625 26.865234375) " fill="rgb(255, 140, 0)" stroke="rgb(255, 140, 0)" stroke-width="0.233" data-glyph-w="4.87744140625" data-glyph-h="7.2939453125" data-glyph-ascender="5.865234375" data-glyph-descender="-1.4287109375"></path><path d="M3.28-2.09L3.28-2.09L1.47-2.09L1.47 0L0.68 0L0.68-4.90L0.75-4.90L3.29-4.90L3.30-4.90Q3.88-4.91 4.30-4.49L4.30-4.49Q4.71-4.08 4.71-3.50L4.71-3.50Q4.71-2.91 4.30-2.50L4.30-2.50Q3.89-2.09 3.30-2.09L3.30-2.09L3.28-2.09ZM3.30-4.12L3.30-4.12L1.47-4.12L1.47-2.88L3.30-2.88L3.30-2.87Q3.56-2.87 3.74-3.06L3.74-3.06Q3.92-3.24 3.92-3.50L3.92-3.50Q3.92-3.75 3.74-3.93L3.74-3.93Q3.56-4.12 3.30-4.12L3.30-4.12Z" transform="translate(37.5908203125 26.865234375) " fill="rgb(255, 140, 0)" stroke="rgb(255, 140, 0)" stroke-width="0.233" data-glyph-w="5.41064453125" data-glyph-h="7.2939453125" data-glyph-ascender="5.865234375" data-glyph-descender="-1.4287109375"></path><path d="M3.28-2.09L3.28-2.09L1.47-2.09L1.47 0L0.68 0L0.68-4.90L0.75-4.90L3.29-4.90L3.30-4.90Q3.88-4.91 4.30-4.49L4.30-4.49Q4.71-4.08 4.71-3.50L4.71-3.50Q4.71-2.91 4.30-2.50L4.30-2.50Q3.89-2.09 3.30-2.09L3.30-2.09L3.28-2.09ZM3.30-4.12L3.30-4.12L1.47-4.12L1.47-2.88L3.30-2.88L3.30-2.87Q3.56-2.87 3.74-3.06L3.74-3.06Q3.92-3.24 3.92-3.50L3.92-3.50Q3.92-3.75 3.74-3.93L3.74-3.93Q3.56-4.12 3.30-4.12L3.30-4.12Z" transform="translate(43.00146484375 26.865234375) " fill="rgb(255, 140, 0)" stroke="rgb(255, 140, 0)" stroke-width="0.233" data-glyph-w="5.41064453125" data-glyph-h="7.2939453125" data-glyph-ascender="5.865234375" data-glyph-descender="-1.4287109375"></path><path d="M0.50-0.57L0.50-0.57L0.78-0.86Q0.83-0.91 0.88-0.91L0.88-0.91Q0.92-0.91 0.98-0.85L0.98-0.85L1.25-0.56Q1.30-0.50 1.30-0.46L1.30-0.46Q1.30-0.41 1.25-0.35L1.25-0.35L0.97-0.05Q0.91 0.02 0.88 0.02L0.88 0.02Q0.82 0.02 0.78-0.03L0.78-0.03L0.48-0.38Q0.44-0.42 0.44-0.46L0.44-0.46Q0.44-0.52 0.50-0.57Z" transform="translate(48.412109375 26.865234375) " fill="rgb(255, 140, 0)" stroke="rgb(255, 140, 0)" stroke-width="0.233" data-glyph-w="1.90380859375" data-glyph-h="7.2939453125" data-glyph-ascender="5.865234375" data-glyph-descender="-1.4287109375"></path><path d="M0.73-1.88Q0.62-2.37 0.70-2.85L0.70-2.85Q0.78-3.32 1.04-3.73L1.04-3.73Q1.29-4.13 1.67-4.41L1.67-4.41Q2.07-4.70 2.55-4.82L2.55-4.82Q3.02-4.93 3.49-4.85L3.49-4.85Q3.95-4.78 4.35-4.55L4.35-4.55Q4.75-4.31 5.03-3.95L5.03-3.95Q5.33-3.57 5.46-3.11L5.46-3.11L4.64-3.11Q4.40-3.66 3.86-3.93L3.86-3.93Q3.32-4.20 2.73-4.06L2.73-4.06Q2.06-3.91 1.70-3.32L1.70-3.32Q1.33-2.73 1.49-2.06L1.49-2.06Q1.65-1.39 2.24-1.03L2.24-1.03Q2.82-0.66 3.49-0.82L3.49-0.82Q3.88-0.91 4.19-1.17L4.19-1.17Q4.48-1.42 4.64-1.77L4.64-1.77L5.46-1.77Q5.28-1.15 4.81-0.69L4.81-0.69Q4.33-0.22 3.67-0.06L3.67-0.06Q3.19 0.05 2.70-0.03L2.70-0.03Q2.23-0.12 1.83-0.37L1.83-0.37Q1.42-0.62 1.14-1.00L1.14-1.00Q0.85-1.40 0.73-1.88L0.73-1.88Z" transform="translate(50.31591796875 26.865234375) " fill="rgb(255, 140, 0)" stroke="rgb(255, 140, 0)" stroke-width="0.233" data-glyph-w="6.15576171875" data-glyph-h="7.2939453125" data-glyph-ascender="5.865234375" data-glyph-descender="-1.4287109375"></path><path d="M5.52-3.01Q5.40-3.49 5.11-3.89L5.11-3.89Q4.83-4.28 4.42-4.53L4.42-4.53Q4.02-4.78 3.54-4.86L3.54-4.86Q3.06-4.95 2.57-4.83L2.57-4.83Q2.09-4.72 1.69-4.43L1.69-4.43Q1.31-4.14 1.05-3.74L1.05-3.74Q0.80-3.33 0.72-2.86L0.72-2.86Q0.64-2.37 0.75-1.89L0.75-1.89Q0.87-1.40 1.16-1.00L1.16-1.00Q1.44-0.62 1.85-0.37L1.85-0.37Q2.26-0.12 2.72-0.03L2.72-0.03Q3.21 0.05 3.70-0.06L3.70-0.06Q4.18-0.18 4.58-0.47L4.58-0.47Q4.97-0.75 5.22-1.16L5.22-1.16Q5.47-1.57 5.55-2.04L5.55-2.04Q5.63-2.53 5.52-3.01L5.52-3.01ZM3.52-0.82Q2.85-0.67 2.26-1.03L2.26-1.03Q1.67-1.39 1.51-2.07L1.51-2.07Q1.35-2.74 1.72-3.33L1.72-3.33Q2.08-3.91 2.75-4.07L2.75-4.07Q3.42-4.23 4.01-3.87L4.01-3.87Q4.60-3.50 4.76-2.83L4.76-2.83Q4.92-2.16 4.56-1.57L4.56-1.57Q4.19-0.98 3.52-0.82L3.52-0.82Z" transform="translate(56.4716796875 26.865234375) " fill="rgb(255, 140, 0)" stroke="rgb(255, 140, 0)" stroke-width="0.233" data-glyph-w="6.275390625" data-glyph-h="7.2939453125" data-glyph-ascender="5.865234375" data-glyph-descender="-1.4287109375"></path><path d="M2.04-4.90L2.08-4.80L3.36-1.88L4.63-4.80L4.67-4.90L6.03-0.08L5.27-0.08L4.55-2.69Q4.32-2.17 3.96-1.35L3.96-1.35L3.82-1.03Q3.75-0.84 3.68-0.70L3.68-0.70Q3.52-0.32 3.38-0.01L3.38-0.01L3.33-0.01Q3.19-0.32 3.03-0.70L3.03-0.70Q2.97-0.84 2.88-1.03L2.88-1.03L2.74-1.35Q2.39-2.17 2.16-2.69L2.16-2.69L1.44-0.08L0.68-0.08L2.04-4.90Z" transform="translate(62.7470703125 26.865234375) " fill="rgb(255, 140, 0)" stroke="rgb(255, 140, 0)" stroke-width="0.233" data-glyph-w="6.70947265625" data-glyph-h="7.2939453125" data-glyph-ascender="5.865234375" data-glyph-descender="-1.4287109375"></path></g></svg></g></g><g id="shape_bos6SPlo4C" transform="translate(-9.9992894154508,-76.81459700791555) rotate(0,44.455383899538994,100.62) scale(1,1)" filter="url(#filter_shadow_shape_bos6SPlo4C)" style="opacity: 1;"><g><svg xmlns="http://www.w3.org/2000/svg" version="1.1" xmlns:xlink="http://www.w3.org/1999/xlink" width="144.47076779907798" height="201.24" viewBox="0 0 144.47076779907798 201.24" data-parent="shape_bos6SPlo4C"><g data-width="20.64054" transform="translate(27.78, 0)"><path d="M19.97-12.92Q19.97-11.17 19.11-9.72Q18.25-8.28 16.78-7.47L16.78-7.47L19.97 0L15.53 0L12.64-6.69L5.61-6.69L5.61 0L1.14 0L1.14-19.11L13.75-19.11Q15.45-19.11 16.88-18.28Q18.31-17.45 19.14-16.03Q19.97-14.61 19.97-12.92L19.97-12.92ZM5.61-16.14L5.61-9.67L12.28-9.67Q13.61-9.67 14.57-10.61Q15.53-11.56 15.53-12.92L15.53-12.92Q15.53-14.25 14.57-15.20Q13.61-16.14 12.28-16.14L12.28-16.14L5.61-16.14Z" transform="translate(0 111.12) " fill="#ff8c00" stroke="#ff8c00" stroke-width="0.046" data-glyph-w="20.64054" data-glyph-h="33.336000000000006" data-glyph-ascender="27.78" data-glyph-descender="-5.556000000000001"></path></g></svg></g></g></svg>