<svg data-noselect="" viewBox="0 0 532 166" width="532" height="166" preserveAspectRatio="none" version="1.1" xmlns="http://www.w3.org/2000/svg" xmlns:xlink="http://www.w3.org/1999/xlink" class="svg-canvas"><defs></defs> <g id="background" data-noselect=""><!----> <!----></g> <g id="shape_e1ISiiit9f" transform="translate(11.953768629599267,5.180701062665335) rotate(0,130.33101642728877,77.24946446533782) scale(1,1)" filter="" style="opacity: 1;"><g><rect fill="rgba(0,0,0,0)" width="280.66203285457755" height="174.49892893067565" x="-10" y="-10"></rect><svg version="1.1" id="图层_1" xmlns="http://www.w3.org/2000/svg" xmlns:xlink="http://www.w3.org/1999/xlink" x="0px" y="0px" width="260.66203285457755" height="154.49892893067565" viewBox="3.190000057220459 4.529999732971191 195.80999755859375 116.05999755859375" style="enable-background:new 0 0 202 125;" xml:space="preserve" class="style-removed" preserveAspectRatio="none" data-parent="shape_e1ISiiit9f">

<g>
	<polygon points="112.74,34.79 19.23,34.79 36.7,4.53 95.26,4.53 	" fill="#000000" stroke-width="0"></polygon>
	<polygon points="45.33,41.3 18.12,88.42 3.19,62.56 15.47,41.3 	" fill="#000000" stroke-width="0"></polygon>
	<polygon points="61.9,120.59 36.7,120.59 21.88,94.93 34.48,73.09 	" fill="#000000" stroke-width="0"></polygon>
	<polygon points="189.38,104.94 199,120.59 69.42,120.59 60.38,104.94 	" fill="#000000" stroke-width="0"></polygon>
	<g>
		<polygon points="82.06,116.6 74.95,116.6 70.42,108.93 77.54,108.93 		" fill="#FECF00" stroke-width="0"></polygon>
		<polygon points="97.39,116.6 90.28,116.6 85.75,108.93 92.87,108.93 		" fill="#96C11F" stroke-width="0"></polygon>
		<polygon points="112.72,116.6 105.61,116.6 101.08,108.93 108.2,108.93 		" fill="#009B2A" stroke-width="0"></polygon>
		<polygon points="128.05,116.6 120.94,116.6 116.41,108.93 123.53,108.93 		" fill="#00ADDA" stroke-width="0"></polygon>
		<polygon points="143.38,116.6 136.27,116.6 131.74,108.93 138.86,108.93 		" fill="#0042DA" stroke-width="0"></polygon>
		<polygon points="158.72,116.6 151.6,116.6 147.07,108.93 154.19,108.93 		" fill="#A71FAE" stroke-width="0"></polygon>
		<polygon points="174.05,116.6 166.93,116.6 162.4,108.93 169.52,108.93 		" fill="#E5003D" stroke-width="0"></polygon>
		<polygon points="189.38,116.6 182.26,116.6 177.73,108.93 184.85,108.93 		" fill="#F0800E" stroke-width="0"></polygon>
	</g>
</g>
</svg></g></g><g id="shape_gNABCAfKIg" transform="translate(-21.120155476737636,-272.8829461709818) rotate(0,314.74823511305203,367.61614999999995) scale(1,1)" filter="" style="opacity: 1;"><g><svg xmlns="http://www.w3.org/2000/svg" version="1.1" xmlns:xlink="http://www.w3.org/1999/xlink" width="839.196470226104" height="735.2322999999999" viewBox="0 0 839.196470226104 735.2322999999999" data-parent="shape_gNABCAfKIg"><g data-width="419.4" transform="translate(104.85, 0)"><path d="M97.51-7.76L97.51-7.76L36.49-7.76L36.49-49.07L35.02-51.59L82.52-51.59L82.52-25.37L49.91-25.37L49.91-14.89L101.18-14.89L101.18-5.77Q100.66-6.92 99.56-7.34Q98.45-7.76 97.51-7.76ZM49.17-59.24L46.34-54.42L32.82-54.42L40.79-68.47L38.38-69.83L55.47-69.83L53.37-66.37L101.18-66.37L101.18-19.61L85.14-19.61L87.76-22.54L87.76-59.24L49.17-59.24ZM23.38-69.83L29.36-53.79L18.77-53.79L24.22-38.79L10.90-38.79L5.66-52.84L3.77-54.84L15.41-54.84L10.69-67.84L8.81-69.83L23.38-69.83ZM30.09-32.61L20.97-7.86L6.92-7.86L15.31-30.51L12.79-32.61L30.09-32.61ZM69.10-31.98L69.10-44.25L49.91-44.25L49.91-31.98L69.10-31.98Z" transform="translate(0 404.61614999999995) " fill="rgb(0, 0, 0)" stroke="rgb(0, 0, 0)" stroke-width="0.175" data-glyph-w="104.85" data-glyph-h="104.85" data-glyph-ascender="90.06615" data-glyph-descender="-14.78385"></path><path d="M97.51-7.76L97.51-7.76L36.49-7.76L36.49-49.07L35.02-51.59L82.52-51.59L82.52-25.37L49.91-25.37L49.91-14.89L101.18-14.89L101.18-5.77Q100.66-6.92 99.56-7.34Q98.45-7.76 97.51-7.76ZM49.17-59.24L46.34-54.42L32.82-54.42L40.79-68.47L38.38-69.83L55.47-69.83L53.37-66.37L101.18-66.37L101.18-19.61L85.14-19.61L87.76-22.54L87.76-59.24L49.17-59.24ZM23.38-69.83L29.36-53.79L18.77-53.79L24.22-38.79L10.90-38.79L5.66-52.84L3.77-54.84L15.41-54.84L10.69-67.84L8.81-69.83L23.38-69.83ZM30.09-32.61L20.97-7.86L6.92-7.86L15.31-30.51L12.79-32.61L30.09-32.61ZM69.10-31.98L69.10-44.25L49.91-44.25L49.91-31.98L69.10-31.98Z" transform="translate(104.85 404.61614999999995) " fill="rgb(0, 0, 0)" stroke="rgb(0, 0, 0)" stroke-width="0.175" data-glyph-w="104.85" data-glyph-h="104.85" data-glyph-ascender="90.06615" data-glyph-descender="-14.78385"></path><path d="M3.46-68.89L65.74-68.89L65.74-48.55L5.35-48.55L5.35-66.89L3.46-68.89ZM3.46-35.86L65.74-35.86L65.74-20.13L42.67-20.13L42.67-6.82L28.52-6.82L31.04-9.65L31.04-20.13L5.35-20.13L5.35-33.87L3.46-35.86ZM101.39-55.26L87.44-38.79L72.98-38.79L84.30-52.32L72.45-52.32L84.51-66.79L82.62-68.78L100.87-68.78L89.33-55.26L101.39-55.26ZM67.21-44.46L67.21-36.49Q66.79-37.85 65.64-38.22Q64.48-38.58 63.54-38.58L63.54-38.58L3.67-38.58L3.67-46.24L6.82-44.46L30.09-44.46L30.09-44.88L28.20-46.87L42.67-46.87L42.67-44.46L67.21-44.46ZM100.76-34.08L84.19-6.82L69.83-6.82L85.56-32.08L83.78-34.08L100.76-34.08ZM17.41-24.74L53.16-24.74L53.16-31.25L17.41-31.25L17.41-24.74ZM17.93-60.92L49.70-60.92L49.70-54.52Q49.28-55.68 48.23-56.04Q47.18-56.41 46.34-56.41L46.34-56.41L17.93-56.41L17.93-53.47L53.16-53.47L53.16-63.85L17.93-63.85L17.93-60.92ZM4.51-17.41L18.35-17.41L15.62-6.71L3.67-6.71L6.40-15.41L4.51-17.41ZM52.63-17.41L66.47-17.41L64.59-15.41L67.21-6.71L55.36-6.71L52.63-17.41Z" transform="translate(209.7 404.61614999999995) " fill="rgb(0, 0, 0)" stroke="rgb(0, 0, 0)" stroke-width="0.175" data-glyph-w="104.85" data-glyph-h="104.85" data-glyph-ascender="90.06615" data-glyph-descender="-14.78385"></path><path d="M70.25-27.58L61.02-7.97L49.07-7.97L59.03-29.78L49.59-29.78L49.59-67.42L48.13-69.73L98.56-69.73L98.56-29.67L88.07-29.67L88.07-62.60L59.97-62.60L59.97-31.66L68.89-51.17L67.00-53.26L82.31-53.26L71.30-29.88L82.20-29.88L82.20-14.99L82.62-14.78L101.60-14.78L101.60-5.56Q101.08-6.82 99.92-7.18Q98.77-7.55 97.83-7.55L97.83-7.55L70.25-7.55L70.25-27.58ZM32.40-40.58L32.40-7.65L18.98-7.65L18.98-30.09L18.14-29.04L3.25-29.04L24.53-54.84L8.49-54.84L8.49-63.85L11.85-62.07L20.24-62.07L20.24-67.84L18.35-69.83L33.66-69.83L33.66-62.07L44.46-62.07L32.40-46.87L32.40-43.09L44.35-43.09L42.46-41.10L47.39-27.05L37.54-27.05L32.40-40.58Z" transform="translate(314.54999999999995 404.61614999999995) " fill="rgb(0, 0, 0)" stroke="rgb(0, 0, 0)" stroke-width="0.175" data-glyph-w="104.85" data-glyph-h="104.85" data-glyph-ascender="90.06615" data-glyph-descender="-14.78385"></path></g></svg></g></g><g id="shape_M7DruSKrrA" transform="translate(124.23043596551895,-92.88203054598188) rotate(0,362.29587878384746,118.115234375) scale(1,1)" filter="" style="opacity: 1;"><g><svg xmlns="http://www.w3.org/2000/svg" version="1.1" xmlns:xlink="http://www.w3.org/1999/xlink" width="790.5917575676949" height="236.23046875" viewBox="0 0 790.5917575676949 236.23046875" data-parent="shape_M7DruSKrrA"><g data-width="339.3134765625" transform="translate(33, 0)"><path d="M8.46 0L6.74 0L0.53-23.69L0.53-23.69L2.26-23.69L4.00-23.69L4.00-23.69L8.22-4.96Q8.33-4.50 8.40-4.07Q8.48-3.64 8.48-3.46L8.48-3.46L8.48-3.46Q8.48-3.67 8.56-4.11Q8.64-4.54 8.75-4.96L8.75-4.96L13.76-23.69L15.57-23.69L17.37-23.69L22.35-5.06Q22.48-4.62 22.56-4.17Q22.64-3.72 22.64-3.51L22.64-3.51L22.64-3.51Q22.64-3.69 22.71-4.14Q22.78-4.59 22.90-5.06L22.90-5.06L27.17-23.69L27.17-23.69L28.89-23.69L30.62-23.69L30.62-23.69L24.41 0L22.69 0L20.96 0L15.82-18.32Q15.69-18.79 15.60-19.24Q15.50-19.69 15.50-19.87L15.50-19.87L15.50-19.87Q15.50-19.66 15.42-19.22Q15.34-18.77 15.21-18.32L15.21-18.32L10.18 0L8.46 0Z" transform="translate(0 129.615234375) " fill="rgb(0, 0, 0)" stroke="rgb(0, 0, 0)" stroke-width="1.1" data-glyph-w="31.14697265625" data-glyph-h="37.81787109375" data-glyph-ascender="30.615234375" data-glyph-descender="-7.20263671875"></path><path d="M6.93 0L5.37 0L0.47-17.24L0.47-17.24L2.06-17.24L3.66-17.24L3.66-17.24L6.96-3.51L6.96-3.51L6.96-3.51L10.33-17.24L11.94-17.24L13.55-17.24L17.02-3.42L17.02-3.42L17.02-3.42L20.51-17.24L20.51-17.24L21.95-17.24L23.40-17.24L23.40-17.24L18.51 0L16.97 0L15.40 0L11.84-13.47L11.84-13.47L11.84-13.47L8.48 0L6.93 0Z" transform="translate(31.14697265625 129.615234375) " fill="rgb(0, 0, 0)" stroke="rgb(0, 0, 0)" stroke-width="1.1" data-glyph-w="23.83154296875" data-glyph-h="37.81787109375" data-glyph-ascender="30.615234375" data-glyph-descender="-7.20263671875"></path><path d="M8.46 0L6.74 0L0.53-23.69L0.53-23.69L2.26-23.69L4.00-23.69L4.00-23.69L8.22-4.96Q8.33-4.50 8.40-4.07Q8.48-3.64 8.48-3.46L8.48-3.46L8.48-3.46Q8.48-3.67 8.56-4.11Q8.64-4.54 8.75-4.96L8.75-4.96L13.76-23.69L15.57-23.69L17.37-23.69L22.35-5.06Q22.48-4.62 22.56-4.17Q22.64-3.72 22.64-3.51L22.64-3.51L22.64-3.51Q22.64-3.69 22.71-4.14Q22.78-4.59 22.90-5.06L22.90-5.06L27.17-23.69L27.17-23.69L28.89-23.69L30.62-23.69L30.62-23.69L24.41 0L22.69 0L20.96 0L15.82-18.32Q15.69-18.79 15.60-19.24Q15.50-19.69 15.50-19.87L15.50-19.87L15.50-19.87Q15.50-19.66 15.42-19.22Q15.34-18.77 15.21-18.32L15.21-18.32L10.18 0L8.46 0Z" transform="translate(54.978515625 129.615234375) " fill="rgb(0, 0, 0)" stroke="rgb(0, 0, 0)" stroke-width="1.1" data-glyph-w="31.14697265625" data-glyph-h="37.81787109375" data-glyph-ascender="30.615234375" data-glyph-descender="-7.20263671875"></path><path d="M2.87 0L2.87-3.50L6.32-3.50L6.32 0L2.87 0Z" transform="translate(86.12548828125 129.615234375) " fill="rgb(0, 0, 0)" stroke="rgb(0, 0, 0)" stroke-width="1.1" data-glyph-w="9.16845703125" data-glyph-h="37.81787109375" data-glyph-ascender="30.615234375" data-glyph-descender="-7.20263671875"></path><path d="M16.97-7.46L16.97-7.46Q16.97-3.90 14.74-1.64Q12.50 0.63 9.01 0.63L9.01 0.63Q5.53 0.63 3.42-1.11Q1.31-2.85 1.06-5.91L1.06-5.91L1.06-5.91L4.08-5.91L4.08-5.91Q4.32-3.98 5.64-2.92Q6.96-1.87 9.14-1.87L9.14-1.87Q11.23-1.87 12.56-3.34Q13.89-4.80 13.89-7.11L13.89-7.11Q13.89-9.52 12.50-10.95Q11.12-12.38 8.75-12.38L8.75-12.38Q7.48-12.38 6.28-11.76Q5.08-11.15 4.46-10.20L4.46-10.20L2.01-10.36L3.69-22.74L3.69-22.74L15.71-22.74L15.71-19.92L5.87-19.92L5.87-19.92L4.87-13.57L4.87-13.57L4.96-13.63Q6.88-14.95 9.01-14.95L9.01-14.95Q12.67-14.95 14.82-12.92L14.82-12.92Q16.97-10.91 16.97-7.46Z" transform="translate(95.2939453125 129.615234375) " fill="rgb(0, 0, 0)" stroke="rgb(0, 0, 0)" stroke-width="1.1" data-glyph-w="18.35302734375" data-glyph-h="37.81787109375" data-glyph-ascender="30.615234375" data-glyph-descender="-7.20263671875"></path><path d="M9.17 0.63L9.17 0.63Q5.37 0.63 3.30-2.47Q1.22-5.56 1.22-11.28L1.22-11.28Q1.22-17.00 3.30-20.10Q5.37-23.20 9.17-23.20L9.17-23.20Q13.00-23.20 15.07-20.10Q17.13-17.00 17.13-11.28L17.13-11.28Q17.13-5.56 15.07-2.47Q13.00 0.63 9.17 0.63L9.17 0.63ZM9.17-1.98L9.17-1.98Q11.62-1.98 12.84-4.30Q14.07-6.62 14.05-11.28L14.05-11.28Q14.07-15.94 12.84-18.26Q11.62-20.59 9.17-20.59L9.17-20.59Q6.74-20.59 5.53-18.26Q4.32-15.94 4.30-11.28L4.30-11.28Q4.32-6.62 5.53-4.30Q6.74-1.98 9.17-1.98L9.17-1.98Z" transform="translate(113.64697265625 129.615234375) " fill="rgb(0, 0, 0)" stroke="rgb(0, 0, 0)" stroke-width="1.1" data-glyph-w="18.35302734375" data-glyph-h="37.81787109375" data-glyph-ascender="30.615234375" data-glyph-descender="-7.20263671875"></path><path d="M11.05-5.56L11.05-5.56L0.82-5.56L0.82-6.91L0.82-8.27L11.55-23.19L12.76-23.19L13.97-23.19L13.97-8.04L13.97-8.04L17.26-8.04L17.26-5.56L13.97-5.56L13.97-5.56L13.97 0L11.05 0L11.05-5.56ZM3.50-8.04L11.05-8.04L11.05-8.04L11.05-18.63L11.05-18.63L11.05-18.63L3.66-8.27L3.50-8.04L3.50-8.04Z" transform="translate(132 129.615234375) " fill="rgb(0, 0, 0)" stroke="rgb(0, 0, 0)" stroke-width="1.1" data-glyph-w="18.35302734375" data-glyph-h="37.81787109375" data-glyph-ascender="30.615234375" data-glyph-descender="-7.20263671875"></path><path d="M16.97-7.46L16.97-7.46Q16.97-3.90 14.74-1.64Q12.50 0.63 9.01 0.63L9.01 0.63Q5.53 0.63 3.42-1.11Q1.31-2.85 1.06-5.91L1.06-5.91L1.06-5.91L4.08-5.91L4.08-5.91Q4.32-3.98 5.64-2.92Q6.96-1.87 9.14-1.87L9.14-1.87Q11.23-1.87 12.56-3.34Q13.89-4.80 13.89-7.11L13.89-7.11Q13.89-9.52 12.50-10.95Q11.12-12.38 8.75-12.38L8.75-12.38Q7.48-12.38 6.28-11.76Q5.08-11.15 4.46-10.20L4.46-10.20L2.01-10.36L3.69-22.74L3.69-22.74L15.71-22.74L15.71-19.92L5.87-19.92L5.87-19.92L4.87-13.57L4.87-13.57L4.96-13.63Q6.88-14.95 9.01-14.95L9.01-14.95Q12.67-14.95 14.82-12.92L14.82-12.92Q16.97-10.91 16.97-7.46Z" transform="translate(150.35302734375 129.615234375) " fill="rgb(0, 0, 0)" stroke="rgb(0, 0, 0)" stroke-width="1.1" data-glyph-w="18.35302734375" data-glyph-h="37.81787109375" data-glyph-ascender="30.615234375" data-glyph-descender="-7.20263671875"></path><path d="M13.41-16.90L13.41-16.90Q13.41-18.55 12.16-19.59Q10.91-20.63 8.96-20.63L8.96-20.63Q6.90-20.63 5.80-19.36Q4.71-18.10 4.59-15.58L4.59-15.58L4.59-15.58L1.77-15.58L1.77-15.58Q1.77-19.22 3.68-21.21Q5.59-23.20 9.09-23.20L9.09-23.20Q12.39-23.20 14.41-21.55Q16.44-19.90 16.44-17.19L16.44-17.19Q16.44-14.50 14.41-12.84L14.41-12.84Q14.02-12.52 13.57-12.26L13.57-12.26L13.57-12.26Q14.41-11.89 15.05-11.38L15.05-11.38Q17.23-9.67 17.23-6.77L17.23-6.77Q17.23-3.51 14.97-1.44Q12.71 0.63 9.17 0.63L9.17 0.63Q5.27 0.63 3.29-1.25Q1.31-3.13 1.13-6.99L1.13-6.99L1.13-6.99L4.17-6.99L4.17-6.99Q4.43-4.29 5.61-3.12Q6.78-1.95 9.27-1.95L9.27-1.95Q11.41-1.95 12.78-3.18Q14.15-4.42 14.15-6.35L14.15-6.35Q14.15-8.38 12.83-9.57L12.83-9.57Q11.70-10.60 9.93-10.73L9.93-10.73Q9.10-10.78 8.37-10.78Q7.64-10.78 7.40-10.72L7.40-10.72L7.40-13.26Q7.75-13.18 8.49-13.18Q9.23-13.18 9.96-13.28L9.96-13.28Q11.36-13.45 12.23-14.20L12.23-14.20Q13.41-15.16 13.41-16.90Z" transform="translate(168.7060546875 129.615234375) " fill="rgb(0, 0, 0)" stroke="rgb(0, 0, 0)" stroke-width="1.1" data-glyph-w="18.35302734375" data-glyph-h="37.81787109375" data-glyph-ascender="30.615234375" data-glyph-descender="-7.20263671875"></path><path d="M7.81 0L4.58 0Q5.69-5.83 8.09-10.80L8.09-10.80Q10.44-15.60 14.15-19.92L14.15-19.92L14.15-19.92L1.22-19.92L1.22-22.74L17.26-22.74L17.26-21.45L17.26-20.16Q13.45-15.68 11.13-10.75L11.13-10.75Q8.81-5.80 7.81 0L7.81 0Z" transform="translate(187.05908203125 129.615234375) " fill="rgb(0, 0, 0)" stroke="rgb(0, 0, 0)" stroke-width="1.1" data-glyph-w="18.35302734375" data-glyph-h="37.81787109375" data-glyph-ascender="30.615234375" data-glyph-descender="-7.20263671875"></path><path d="M8.77 0L8.77 0L8.77-16.47L8.77-16.47L3.34-16.47L3.34-18.79Q5.74-18.74 7.23-19.82L7.23-19.82Q8.75-20.92 9.47-23.20L9.47-23.20L11.84-23.20L11.84-23.20L11.84 0L11.84 0L10.31 0L8.77 0Z" transform="translate(205.412109375 129.615234375) " fill="rgb(0, 0, 0)" stroke="rgb(0, 0, 0)" stroke-width="1.1" data-glyph-w="18.35302734375" data-glyph-h="37.81787109375" data-glyph-ascender="30.615234375" data-glyph-descender="-7.20263671875"></path><path d="M9.81-23.20L9.81-23.20Q12.87-23.20 14.69-21.55Q16.50-19.90 16.63-17.00L16.63-17.00L16.63-17.00L13.76-17.00L13.76-17.00Q13.60-18.72 12.57-19.66Q11.54-20.59 9.81-20.59L9.81-20.59Q7.12-20.59 5.67-18.01L5.67-18.01Q4.42-15.81 4.29-12.00L4.29-12.00L4.29-12.00Q6.45-14.76 9.80-14.76L9.80-14.76Q13.08-14.76 15.09-12.64Q17.10-10.52 17.10-7.06L17.10-7.06Q17.10-3.59 14.91-1.48Q12.73 0.63 9.17 0.63L9.17 0.63Q5.37 0.63 3.31-2.31Q1.26-5.25 1.26-10.68L1.26-10.68Q1.26-16.69 3.50-19.95L3.50-19.95Q5.72-23.20 9.81-23.20ZM4.64-7.06L4.64-7.06Q4.64-4.82 5.95-3.40Q7.27-1.98 9.33-1.98L9.33-1.98Q11.39-1.98 12.71-3.40Q14.02-4.82 14.02-7.06L14.02-7.06Q14.02-9.30 12.71-10.72Q11.39-12.15 9.33-12.15L9.33-12.15Q7.27-12.15 5.95-10.72L5.95-10.72Q4.64-9.30 4.64-7.06Z" transform="translate(223.76513671875 129.615234375) " fill="rgb(0, 0, 0)" stroke="rgb(0, 0, 0)" stroke-width="1.1" data-glyph-w="18.35302734375" data-glyph-h="37.81787109375" data-glyph-ascender="30.615234375" data-glyph-descender="-7.20263671875"></path><path d="M13.18-12.28L13.18-12.28L13.18-12.28Q14.12-11.86 14.89-11.23L14.89-11.23Q17.06-9.47 17.06-6.59L17.06-6.59Q17.06-3.34 14.89-1.35Q12.71 0.63 9.15 0.63L9.15 0.63Q5.59 0.63 3.42-1.35Q1.26-3.34 1.26-6.59L1.26-6.59Q1.26-9.47 3.43-11.25L3.43-11.25Q4.19-11.86 5.11-12.26L5.11-12.26L5.11-12.26Q4.53-12.58 4.00-12.97L4.00-12.97Q2.05-14.49 2.05-16.97L2.05-16.97Q2.05-19.77 4.00-21.49Q5.96-23.20 9.15-23.20L9.15-23.20Q12.34-23.20 14.30-21.49Q16.26-19.77 16.26-16.97L16.26-16.97Q16.26-14.49 14.29-12.97L14.29-12.97Q13.78-12.57 13.18-12.28ZM9.15-13.49L9.15-13.49Q10.92-13.49 12.05-14.48Q13.18-15.47 13.18-17.03L13.18-17.03Q13.18-18.59 12.05-19.59Q10.92-20.59 9.15-20.59L9.15-20.59Q7.38-20.59 6.25-19.59Q5.12-18.59 5.12-17.03L5.12-17.03Q5.12-15.47 6.25-14.47L6.25-14.47Q7.38-13.49 9.15-13.49ZM9.15-10.97L9.15-10.97Q7.03-10.97 5.68-9.71Q4.33-8.44 4.33-6.46L4.33-6.46Q4.33-4.50 5.68-3.24Q7.03-1.98 9.15-1.98L9.15-1.98Q11.28-1.98 12.63-3.24Q13.99-4.50 13.99-6.46L13.99-6.46Q13.99-8.44 12.63-9.72L12.63-9.72Q11.28-10.97 9.15-10.97Z" transform="translate(242.1181640625 129.615234375) " fill="rgb(0, 0, 0)" stroke="rgb(0, 0, 0)" stroke-width="1.1" data-glyph-w="18.35302734375" data-glyph-h="37.81787109375" data-glyph-ascender="30.615234375" data-glyph-descender="-7.20263671875"></path><path d="M2.87 0L2.87-3.50L6.32-3.50L6.32 0L2.87 0Z" transform="translate(260.47119140625 129.615234375) " fill="rgb(0, 0, 0)" stroke="rgb(0, 0, 0)" stroke-width="1.1" data-glyph-w="9.16845703125" data-glyph-h="37.81787109375" data-glyph-ascender="30.615234375" data-glyph-descender="-7.20263671875"></path><path d="M19.38-8.72L22.48-8.72L22.48-8.72Q21.87-4.33 19.12-1.84Q16.37 0.64 12.17 0.64L12.17 0.64Q7.27 0.64 4.36-2.73Q1.45-6.11 1.45-11.83L1.45-11.83Q1.45-17.55 4.47-20.94Q7.49-24.33 12.58-24.33L12.58-24.33Q16.60-24.33 19.17-22.27Q21.75-20.21 22.27-16.58L22.27-16.58L22.27-16.58L19.17-16.58L19.17-16.58Q18.72-18.93 16.99-20.21Q15.26-21.50 12.54-21.50L12.54-21.50Q8.98-21.50 6.86-18.88Q4.75-16.26 4.75-11.83L4.75-11.83Q4.75-7.12 6.71-4.66Q8.67-2.19 12.39-2.19L12.39-2.19Q15.15-2.19 16.97-3.89Q18.79-5.59 19.38-8.72L19.38-8.72L19.38-8.72Z" transform="translate(269.6396484375 129.615234375) " fill="rgb(0, 0, 0)" stroke="rgb(0, 0, 0)" stroke-width="1.1" data-glyph-w="23.83154296875" data-glyph-h="37.81787109375" data-glyph-ascender="30.615234375" data-glyph-descender="-7.20263671875"></path><path d="M9.17 0.47L9.17 0.47Q5.59 0.47 3.38-2.05Q1.16-4.56 1.16-8.64L1.16-8.64Q1.16-12.73 3.38-15.24Q5.59-17.76 9.17-17.76L9.17-17.76Q12.78-17.76 14.99-15.24Q17.19-12.73 17.19-8.64L17.19-8.64Q17.19-4.56 14.99-2.05Q12.78 0.47 9.17 0.47L9.17 0.47ZM9.17-2.03L9.17-2.03Q11.46-2.03 12.81-3.82Q14.16-5.61 14.16-8.64L14.16-8.64Q14.16-11.67 12.81-13.46Q11.46-15.26 9.17-15.26L9.17-15.26Q6.88-15.26 5.53-13.46Q4.19-11.67 4.19-8.64L4.19-8.64Q4.19-5.61 5.53-3.82Q6.88-2.03 9.17-2.03L9.17-2.03Z" transform="translate(293.47119140625 129.615234375) " fill="rgb(0, 0, 0)" stroke="rgb(0, 0, 0)" stroke-width="1.1" data-glyph-w="18.35302734375" data-glyph-h="37.81787109375" data-glyph-ascender="30.615234375" data-glyph-descender="-7.20263671875"></path><path d="M5.53-19.98L5.53 0L5.53 0L3.98 0L2.42 0L2.42 0L2.42-23.69L2.42-23.69L4.72-23.69L7.03-23.69L7.03-23.69L13.79-3.53L13.79-3.53L13.79-3.53L20.51-23.69L20.51-23.69L22.82-23.69L25.12-23.69L25.12-23.69L25.12 0L25.12 0L23.57 0L22.01 0L22.01 0L22.01-20.04L22.01-20.04L15.32 0L13.78 0L12.23 0L5.53-19.98L5.53-19.98Z" transform="translate(311.82421875 129.615234375) " fill="rgb(0, 0, 0)" stroke="rgb(0, 0, 0)" stroke-width="1.1" data-glyph-w="27.4892578125" data-glyph-h="37.81787109375" data-glyph-ascender="30.615234375" data-glyph-descender="-7.20263671875"></path></g></svg></g></g></svg>